<svg width="575px" height="212px" viewBox="0 0 575 212" version="1.1" xmlns="http://www.w3.org/2000/svg" xmlns:xlink="http://www.w3.org/1999/xlink" xmlns:sketch="http://www.bohemiancoding.com/sketch/ns">
    <defs>
        <linearGradient x1="0.25781251%" y1="49.7500002%" x2="101.257813%" y2="49.7500002%" id="linearGradient-1">
            <stop stop-color="#BF2E44" offset="0%"></stop>
            <stop stop-color="#FE536E" offset="47.5247532%"></stop>
            <stop stop-color="#FAAD0A" offset="100%"></stop>
        </linearGradient>
        <path d="M0.21875,178.971465 L0.503065406,144.609379 L35.7581757,144.609379 C42.9608687,144.609379 49.0262033,142.188227 53.9543617,137.345849 C58.88252,132.503471 61.3465622,126.543711 61.3465622,119.46639 C61.3465622,105.125502 56.2763215,93.2991024 46.135688,83.9868374 C35.9950545,74.6745724 26.0915003,65.5486896 16.4247281,56.6089152 C5.81023324,43.0130083 0.503065406,24.5750002 0.503065406,1.29433769 L35.7581757,1.29433769 C35.7581757,22.7125472 40.9705727,39.7537365 51.395523,52.4184169 C61.0622952,61.3581913 70.7289223,70.2978316 80.3956944,79.237606 C91.0101893,89.8535881 96.3173571,103.263049 96.3173571,119.46639 C96.3173571,136.042221 90.4415642,150.103531 78.689802,161.650739 C66.9380398,173.197948 52.6276408,178.971465 35.7581757,178.971465 L0.21875,178.971465 Z M198.069603,177.093922 L198.069603,148.476393 L168.712132,148.476393 C160.16891,148.476393 153.023777,145.652825 147.276518,140.005605 C141.52926,134.358384 138.655674,127.337621 138.655674,118.943104 C138.655674,110.395959 141.490428,103.260727 147.16002,97.5371927 C152.829613,91.8136584 159.85825,88.9519342 168.24614,88.9519342 L198.302598,89.1808744 L198.069603,60.1054656 L168.24614,60.1054656 C151.936353,60.1054656 138.112073,65.828914 126.772888,77.2759826 C115.433702,88.7230512 109.764194,102.611953 109.764194,118.943104 C109.764194,135.274255 115.39487,149.048688 126.65639,160.266815 C137.91791,171.484942 151.858686,177.093922 168.479136,177.093922 L198.069603,177.093922 Z M295.591289,177.093922 L324.249773,177.093922 L324.249773,60.1054656 L264.602848,60.1054656 C248.448392,60.1054656 234.701777,65.828914 223.362591,77.2759826 C212.023406,88.7230512 206.353898,102.611953 206.353898,118.943104 C206.353898,135.426883 211.945741,149.239472 223.129595,160.381285 C234.31345,171.523099 248.215393,177.093922 264.835844,177.093922 L284.873482,177.093922 L284.873482,148.934274 L264.602848,148.934274 C256.370288,148.934274 249.380484,146.034393 243.633226,140.234545 C237.885967,134.434697 235.012381,127.337621 235.012381,118.943104 C235.012381,110.395959 237.847135,103.260727 243.516728,97.5371927 C249.186321,91.8136584 256.214957,88.9519342 264.602848,88.9519342 L295.824285,89.1808744 L295.591289,177.093922 Z M343.407205,210.449195 L372.53168,210.449195 L372.53168,0.164294347 L343.640201,0.164294347 L343.407205,210.449195 Z M393.501302,210.449195 L422.625777,210.449195 L422.625777,0.164294347 L393.734298,0.164294347 L393.501302,210.449195 Z M465.315785,60.3344058 L437.123294,60.1054656 L477.198571,177.093922 L502.828109,177.093922 L505.624059,173.659818 L465.315785,60.3344058 Z M521.420994,210.614329 C556.979903,149.22898 574.75909,109.401225 574.75909,91.1298686 C574.75909,78.4681388 568.356952,69.9336199 555.552482,65.5260557 C542.748013,61.1184915 521.339587,58.9147425 491.326563,58.9147425 L491.326563,88.7257547 C507.637989,88.7257547 517.343142,88.8860273 520.442313,89.2065774 C534.307025,90.649053 541.239277,96.258596 541.239277,106.035375 C541.239277,114.049128 537.365372,126.029509 529.617445,141.976877 C521.869517,157.924246 508.942906,180.883304 490.837223,210.85474 L521.420994,210.614329 Z" id="path-2"></path>
        <linearGradient x1="50%" y1="0%" x2="50%" y2="100%" id="linearGradient-3">
            <stop stop-color="#000000" offset="0%"></stop>
            <stop stop-color="#000000" offset="100%"></stop>
        </linearGradient>
        <path d="M6.80411488,194.967275 C8.4206142,194.967275 9.77073827,195.356125 10.8545276,196.133837 C11.7546238,196.800447 12.3516174,197.624439 12.6455264,198.605838 C12.7006343,198.846558 12.6547117,199.0595 12.5077573,199.244669 C12.3791721,199.429839 12.1954817,199.550197 11.9566807,199.605748 C11.6995104,199.661299 11.4698974,199.642782 11.267835,199.550198 C11.029034,199.439096 10.8820817,199.253929 10.8269738,198.994692 C10.5514341,198.124395 10.0830237,197.48557 9.42172853,197.078197 C8.76043335,196.689341 7.85116612,196.494916 6.69389957,196.494916 C5.13250818,196.494916 3.92933639,197.152258 3.08434811,198.466961 C2.33120638,199.615012 1.95464116,201.087088 1.95464116,202.883232 C1.95464116,204.71641 2.33120638,206.207003 3.08434811,207.355054 C3.91096708,208.614206 5.11413886,209.243773 6.69389957,209.243773 C7.99812061,209.243773 8.99004849,209.04009 9.66971298,208.632717 C10.3493775,208.225344 10.8545259,207.540227 11.1851735,206.577346 C11.2586508,206.318108 11.4239721,206.132941 11.6811424,206.02184 C11.9015741,205.929255 12.1311871,205.910738 12.3699881,205.966289 C12.6271585,206.02184 12.8108488,206.142198 12.9210647,206.327368 C13.0496499,206.512537 13.0588344,206.743996 12.9486185,207.02175 C12.3975392,208.188318 11.7270694,209.06786 10.9371891,209.660403 C9.89013837,210.419598 8.51246075,210.799189 6.80411488,210.799189 C4.58142831,210.799189 2.8914771,210.002972 1.73421054,208.410515 C0.723898461,207.021743 0.21875,205.188592 0.21875,202.911007 C0.21875,200.70749 0.742267496,198.87434 1.78931819,197.4115 C2.98332337,195.782009 4.65490555,194.967275 6.80411488,194.967275 L6.80411488,194.967275 Z M21.4627513,194.967275 C19.9748372,194.967275 18.7716654,195.300575 17.8531999,195.967185 C16.8796264,196.67083 16.392847,197.642955 16.392847,198.883591 C16.392847,200.031642 16.7969658,200.948217 17.6052154,201.633344 C18.3399878,202.281437 19.5247906,202.818421 21.1596592,203.244311 C22.9598517,203.688718 24.190577,204.17941 24.8518722,204.716401 C25.4029515,205.142291 25.678487,205.734825 25.678487,206.49402 C25.678487,207.308766 25.3570289,207.956849 24.714103,208.43829 C24.0344385,208.975281 23.0976178,209.243773 21.9036126,209.243773 C20.4708064,209.243773 19.4329559,208.975281 18.79003,208.43829 C18.1838428,207.938332 17.8807537,207.206924 17.8807537,206.244042 C17.8623844,205.984805 17.7613547,205.79038 17.5776616,205.660761 C17.4123378,205.531142 17.2102784,205.475592 16.9714774,205.494109 C16.7326763,205.494109 16.5398015,205.568176 16.392847,205.716312 C16.2091539,205.882964 16.1264932,206.095906 16.1448625,206.355143 C16.1999705,207.799465 16.7143035,208.901208 17.6878769,209.660403 C18.6614504,210.419598 20.057497,210.799189 21.8760588,210.799189 C23.6946205,210.799189 25.0906671,210.373306 26.0642406,209.521526 C26.9643368,208.762331 27.4143782,207.762431 27.4143782,206.521795 C27.4143782,205.281159 27.037813,204.309034 26.2846712,203.60539 C25.4947909,202.846195 24.1354823,202.244403 22.2067047,201.799996 C20.626944,201.392623 19.5431709,200.957481 18.955353,200.494557 C18.4042737,200.050151 18.1287382,199.448359 18.1287382,198.689164 C18.1287382,198.04107 18.4410118,197.504087 19.0655683,197.078197 C19.6901249,196.689341 20.4708088,196.494916 21.4076437,196.494916 C22.6383875,196.494916 23.5660237,196.726374 24.1905803,197.189298 C24.7783982,197.615188 25.1090409,198.235497 25.1825181,199.050242 C25.2008874,199.30948 25.3111016,199.513163 25.513164,199.661299 C25.6968572,199.790917 25.9081011,199.846467 26.1469021,199.82795 C26.4040724,199.790917 26.6153163,199.698333 26.7806401,199.550198 C26.9643332,199.365028 27.0469939,199.142828 27.0286246,198.883591 C26.936778,197.754057 26.4867367,196.84674 25.678487,196.161612 C24.7232829,195.365383 23.3180517,194.967275 21.4627513,194.967275 L21.4627513,194.967275 Z M36.2867108,194.967275 C34.7987966,194.967275 33.5956248,195.300575 32.6771593,195.967185 C31.7035859,196.67083 31.2168064,197.642955 31.2168064,198.883591 C31.2168064,200.031642 31.6209252,200.948217 32.4291749,201.633344 C33.1639473,202.281437 34.34875,202.818421 35.9836187,203.244311 C37.7838111,203.688718 39.0145364,204.17941 39.6758316,204.716401 C40.2269109,205.142291 40.5024464,205.734825 40.5024464,206.49402 C40.5024464,207.308766 40.1809883,207.956849 39.5380625,208.43829 C38.858398,208.975281 37.9215772,209.243773 36.727572,209.243773 C35.2947658,209.243773 34.2569153,208.975281 33.6139895,208.43829 C33.0078022,207.938332 32.7047131,207.206924 32.7047131,206.244042 C32.6863438,205.984805 32.5853141,205.79038 32.401621,205.660761 C32.2362972,205.531142 32.0342379,205.475592 31.7954368,205.494109 C31.5566358,205.494109 31.3637609,205.568176 31.2168064,205.716312 C31.0331133,205.882964 30.9504527,206.095906 30.968822,206.355143 C31.0239299,207.799465 31.5382629,208.901208 32.5118363,209.660403 C33.4854098,210.419598 34.8814565,210.799189 36.7000182,210.799189 C38.5185799,210.799189 39.9146266,210.373306 40.8882,209.521526 C41.7882962,208.762331 42.2383376,207.762431 42.2383376,206.521795 C42.2383376,205.281159 41.8617724,204.309034 41.1086307,203.60539 C40.3187503,202.846195 38.9594417,202.244403 37.0306641,201.799996 C35.4509034,201.392623 34.3671304,200.957481 33.7793124,200.494557 C33.2282331,200.050151 32.9526976,199.448359 32.9526976,198.689164 C32.9526976,198.04107 33.2649712,197.504087 33.8895277,197.078197 C34.5140843,196.689341 35.2947683,196.494916 36.2316031,196.494916 C37.4623469,196.494916 38.3899832,196.726374 39.0145397,197.189298 C39.6023577,197.615188 39.9330003,198.235497 40.0064775,199.050242 C40.0248469,199.30948 40.1350611,199.513163 40.3371235,199.661299 C40.5208166,199.790917 40.7320605,199.846467 40.9708615,199.82795 C41.2280319,199.790917 41.4392758,199.698333 41.6045996,199.550198 C41.7882927,199.365028 41.8709533,199.142828 41.852584,198.883591 C41.7607375,197.754057 41.3106961,196.84674 40.5024464,196.161612 C39.5472423,195.365383 38.1420111,194.967275 36.2867108,194.967275 L36.2867108,194.967275 Z M57.22762,195.439455 L55.8499286,195.439455 C55.5743889,195.439455 55.3539605,195.513522 55.1886367,195.661657 C55.0416823,195.809793 54.9682061,195.985701 54.9682061,196.189388 C54.9682061,196.393074 55.0416823,196.568983 55.1886367,196.717118 C55.3539605,196.883771 55.5743889,196.967096 55.8499286,196.967096 L57.22762,196.967096 L57.22762,209.85483 C57.22762,210.151101 57.3102807,210.391818 57.4756045,210.576987 C57.6409282,210.725123 57.8429876,210.799189 58.0817887,210.799189 C58.3022204,210.799189 58.4950953,210.715864 58.6604191,210.549212 C58.8441122,210.364042 58.9359573,210.132584 58.9359573,209.85483 L58.9359573,196.967096 L60.9473868,196.967096 C61.2229264,196.967096 61.4433548,196.883771 61.6086786,196.717118 C61.7556331,196.568983 61.8291093,196.393074 61.8291093,196.189388 C61.8291093,195.985701 61.7556331,195.809793 61.6086786,195.661657 C61.4433548,195.513522 61.2229264,195.439455 60.9473868,195.439455 L58.9359573,195.439455 L58.9359573,192.217521 C58.9359573,191.865699 59.0278025,191.578691 59.2114956,191.356487 C59.4319273,191.09725 59.7442009,190.967633 60.1483258,190.967633 L60.9473868,190.967633 C61.2229264,190.967633 61.4433548,190.884308 61.6086786,190.717656 C61.7556331,190.56952 61.8291093,190.393612 61.8291093,190.189925 C61.8291093,189.967722 61.7556331,189.782555 61.6086786,189.63442 C61.4433548,189.486284 61.2229264,189.412217 60.9473868,189.412217 L59.8452337,189.412217 C59.0002454,189.412217 58.3389601,189.689967 57.861358,190.245476 C57.4388639,190.745434 57.22762,191.365742 57.22762,192.10642 L57.22762,195.439455 Z M65.5213222,195.967185 L65.5213222,209.882605 C65.5213222,210.160359 65.6039829,210.382559 65.7693067,210.549212 C65.9346305,210.697347 66.1366898,210.771414 66.3754909,210.771414 C66.5959226,210.771414 66.7887975,210.697347 66.9541213,210.549212 C67.1378144,210.382559 67.2296595,210.160359 67.2296595,209.882605 L67.2296595,199.050242 C67.5603071,198.328081 68.037902,197.763323 68.6624586,197.35595 C69.3604924,196.893026 70.1595454,196.661568 71.0596416,196.661568 C71.5188744,196.661568 71.7393028,196.374559 71.7209335,195.800534 C71.7025642,195.245025 71.4913203,194.967275 71.0871955,194.967275 C70.2054686,194.967275 69.4156,195.189475 68.7175663,195.633882 C68.1848562,195.967187 67.6888923,196.457879 67.2296595,197.105972 L67.2296595,195.967185 C67.2296595,195.707948 67.1378144,195.504265 66.9541213,195.356129 C66.7887975,195.245027 66.5959226,195.189477 66.3754909,195.189477 C66.1366898,195.189477 65.9346305,195.254286 65.7693067,195.383904 C65.6039829,195.53204 65.5213222,195.726465 65.5213222,195.967185 L65.5213222,195.967185 Z M84.2579252,206.743997 C83.8354311,207.503192 83.2200684,208.095726 82.4118187,208.521616 C81.5117225,209.003056 80.4279495,209.243773 79.160467,209.243773 C78.0399391,209.243773 77.2133325,209.003056 76.6806225,208.521616 C76.1662818,208.077209 75.9091153,207.40135 75.9091153,206.49402 C75.9091153,205.549655 76.1846509,204.836763 76.7357302,204.355322 C77.3051788,203.836848 78.2787377,203.485031 79.6564359,203.299861 C81.0341342,203.114692 82.1179073,202.90175 82.9077876,202.66103 C83.5507135,202.457343 84.0007549,202.244402 84.2579252,202.022198 L84.2579252,206.743997 Z M80.4830508,194.967275 C78.9400287,194.967275 77.7001188,195.309833 76.763284,195.994961 C75.8080799,196.717122 75.2202707,197.791089 74.999839,199.216894 C74.9447311,199.494648 74.9998382,199.716848 75.165162,199.883501 C75.3121165,200.050154 75.4958068,200.142737 75.7162385,200.161254 C75.9550396,200.179771 76.157099,200.124221 76.3224228,199.994602 C76.5244852,199.864984 76.6438839,199.679817 76.6806225,199.439096 C76.7724691,198.513249 77.0939272,197.809615 77.6450065,197.328174 C78.2695631,196.772666 79.2063838,196.494916 80.455497,196.494916 C81.7413487,196.494916 82.705723,196.735633 83.3486489,197.217073 C83.9548361,197.679997 84.2579252,198.365114 84.2579252,199.272445 C84.2579252,200.068674 83.9823897,200.614915 83.4313104,200.911187 C82.8618617,201.225975 81.5943983,201.522242 79.6288821,201.799996 C77.4061955,202.07775 75.8723811,202.698059 75.0273928,203.66094 C74.4579442,204.327551 74.1732242,205.271901 74.1732242,206.49402 C74.1732242,207.845757 74.5865275,208.891949 75.4131464,209.632627 C76.2581347,210.410339 77.5072291,210.799189 79.160467,210.799189 C80.3728415,210.799189 81.4566146,210.586248 82.4118187,210.160358 C83.1098525,209.84557 83.7343997,209.419686 84.285479,208.882694 C84.285479,209.45672 84.4508004,209.864087 84.7814479,210.104807 C85.1855728,210.364044 85.9111496,210.493661 86.9582003,210.493661 C87.2153707,210.493661 87.4174301,210.410336 87.5643846,210.243684 C87.6929697,210.095548 87.7572614,209.91964 87.7572614,209.715953 C87.738892,209.49375 87.6654159,209.308583 87.5368307,209.160447 C87.3898762,209.012312 87.2061859,208.938245 86.9857542,208.938245 C86.6551066,208.938245 86.3979401,208.845662 86.214247,208.660492 C86.0489232,208.49384 85.9662625,208.253123 85.9662625,207.938335 L85.9662625,199.133568 C85.9662625,197.670729 85.4335605,196.587504 84.3681405,195.88386 C83.4313057,195.2728 82.1362887,194.967275 80.4830508,194.967275 L80.4830508,194.967275 Z M90.7881824,196.133837 L90.7881824,209.938155 C90.7881824,210.197393 90.8708431,210.410334 91.0361669,210.576987 C91.2014907,210.725123 91.4035501,210.799189 91.6423511,210.799189 C91.8627828,210.799189 92.0556577,210.725123 92.2209815,210.576987 C92.4046746,210.410334 92.4965198,210.197393 92.4965198,209.938155 L92.4965198,199.161344 C93.102707,198.198462 93.7456232,197.513345 94.4252877,197.105972 C95.1049522,196.698599 95.9315588,196.494916 96.9051322,196.494916 C97.7868591,196.494916 98.4848825,196.754149 98.9992232,197.272624 C99.4584559,197.754065 99.6880689,198.39289 99.6880689,199.189119 L99.6880689,209.938155 C99.6880689,210.197393 99.7707295,210.410334 99.9360533,210.576987 C100.101377,210.725123 100.303436,210.799189 100.542238,210.799189 C100.762669,210.799189 100.955544,210.725123 101.120868,210.576987 C101.304561,210.410334 101.396406,210.197393 101.396406,209.938155 L101.396406,199.411321 C101.929116,198.374372 102.52611,197.633705 103.187405,197.189298 C103.8487,196.726374 104.70286,196.494916 105.749911,196.494916 C106.668377,196.494916 107.375584,196.754149 107.871556,197.272624 C108.330789,197.754065 108.560401,198.39289 108.560401,199.189119 L108.560401,209.938155 C108.560401,210.197393 108.643062,210.410334 108.808386,210.576987 C108.97371,210.725123 109.175769,210.799189 109.41457,210.799189 C109.635002,210.799189 109.827877,210.725123 109.993201,210.576987 C110.176894,210.410334 110.268739,210.197393 110.268739,209.938155 L110.268739,198.911366 C110.268739,197.911451 109.892174,197.031909 109.139032,196.272714 C108.275674,195.402417 107.12761,194.967275 105.694803,194.967275 C104.647753,194.967275 103.701747,195.207992 102.856759,195.689432 C102.085248,196.115322 101.460701,196.707856 100.983099,197.467051 C100.652451,196.763407 100.220779,196.207907 99.6880689,195.800534 C98.9349271,195.245025 97.9889218,194.967275 96.8500246,194.967275 C95.9499284,194.967275 95.0682147,195.207992 94.2048571,195.689432 C93.5068233,196.078288 92.9373832,196.56898 92.4965198,197.161523 L92.4965198,196.133837 C92.4965198,195.819049 92.4046746,195.578332 92.2209815,195.41168 C92.0556577,195.245027 91.8627828,195.161702 91.6423511,195.161702 C91.4035501,195.161702 91.2014907,195.245027 91.0361669,195.41168 C90.8708431,195.578332 90.7881824,195.819049 90.7881824,196.133837 L90.7881824,196.133837 Z M124.899821,206.105166 C124.458958,207.068047 123.95381,207.790197 123.384361,208.271638 C122.649588,208.919731 121.731137,209.243773 120.628978,209.243773 C119.23291,209.243773 118.121584,208.604948 117.294965,207.327278 C116.578562,206.253295 116.183628,204.929353 116.11015,203.355412 L126.938805,203.355412 L126.938805,202.911007 C126.938805,200.744524 126.406103,198.911373 125.340683,197.4115 C124.165047,195.782009 122.594494,194.967275 120.628978,194.967275 C118.663462,194.967275 117.102094,195.782009 115.944827,197.4115 C114.897777,198.911373 114.374259,200.744524 114.374259,202.911007 C114.374259,205.058974 114.897777,206.873608 115.944827,208.354964 C117.102094,209.984456 118.663462,210.799189 120.628978,210.799189 C122.025046,210.799189 123.237402,210.438114 124.266083,209.715953 C125.276395,209.030826 126.047895,208.040184 126.580605,206.743997 C126.690821,206.466243 126.690821,206.20701 126.580605,205.966289 C126.488758,205.762603 126.332622,205.623728 126.11219,205.54966 C125.873389,205.457075 125.643776,205.447817 125.423344,205.521885 C125.184543,205.632986 125.010037,205.827411 124.899821,206.105166 L124.899821,206.105166 Z M116.165258,201.799996 C116.275474,200.448258 116.670408,199.281708 117.350073,198.30031 C118.176692,197.096708 119.269649,196.494916 120.628978,196.494916 C121.988307,196.494916 123.090449,197.105966 123.935437,198.328085 C124.615102,199.328 125.010036,200.485292 125.120252,201.799996 L116.165258,201.799996 Z M133.7446,209.771504 C133.909924,210.456631 134.231382,210.799189 134.708984,210.799189 C135.186586,210.799189 135.517229,210.456631 135.700922,209.771504 L138.979827,198.35586 L142.258733,209.771504 C142.424057,210.456631 142.745515,210.799189 143.223117,210.799189 C143.700719,210.799189 144.031362,210.456631 144.215055,209.771504 L148.706329,195.967185 C148.779806,195.707948 148.743068,195.485748 148.596113,195.300578 C148.467528,195.152443 148.283838,195.050601 148.045037,194.99505 C147.806236,194.939499 147.585807,194.958016 147.383745,195.050601 C147.163313,195.124669 147.025546,195.272802 146.970438,195.495005 L143.223117,207.188402 L139.833996,195.689432 C139.687042,195.207992 139.393137,194.967275 138.952274,194.967275 C138.52978,194.967275 138.245059,195.207992 138.098105,195.689432 L134.708984,207.160627 L130.961664,195.495005 C130.888186,195.272802 130.741234,195.124669 130.520802,195.050601 C130.31874,194.958016 130.107496,194.939499 129.887064,194.99505 C129.648263,195.050601 129.464573,195.152443 129.335988,195.300578 C129.189033,195.485748 129.16148,195.707948 129.253326,195.967185 L133.7446,209.771504 Z M158.377722,195.022826 C156.191774,195.022826 154.483454,195.837559 153.25271,197.467051 C152.168921,198.911373 151.627035,200.735266 151.627035,202.938783 C151.627035,205.123783 152.168921,206.938417 153.25271,208.382739 C154.483454,210.030748 156.191774,210.85474 158.377722,210.85474 C160.545301,210.85474 162.244437,210.030748 163.475181,208.382739 C164.577339,206.938417 165.12841,205.123783 165.12841,202.938783 C165.12841,200.735266 164.577339,198.911373 163.475181,197.467051 C162.244437,195.837559 160.545301,195.022826 158.377722,195.022826 L158.377722,195.022826 Z M158.377722,196.550466 C159.994222,196.550466 161.252501,197.207808 162.152597,198.522512 C162.979216,199.68908 163.392519,201.161155 163.392519,202.938783 C163.392519,204.679376 162.979216,206.142193 162.152597,207.327278 C161.252501,208.641982 159.994222,209.299324 158.377722,209.299324 C156.742854,209.299324 155.466206,208.641982 154.54774,207.327278 C153.75786,206.16071 153.362926,204.697893 153.362926,202.938783 C153.362926,201.161155 153.75786,199.68908 154.54774,198.522512 C155.466206,197.207808 156.742854,196.550466 158.377722,196.550466 L158.377722,196.550466 Z M169.344146,195.967185 L169.344146,209.882605 C169.344146,210.160359 169.426807,210.382559 169.59213,210.549212 C169.757454,210.697347 169.959514,210.771414 170.198315,210.771414 C170.418746,210.771414 170.611621,210.697347 170.776945,210.549212 C170.960638,210.382559 171.052483,210.160359 171.052483,209.882605 L171.052483,199.050242 C171.383131,198.328081 171.860726,197.763323 172.485282,197.35595 C173.183316,196.893026 173.982369,196.661568 174.882465,196.661568 C175.341698,196.661568 175.562126,196.374559 175.543757,195.800534 C175.525388,195.245025 175.314144,194.967275 174.910019,194.967275 C174.028292,194.967275 173.238424,195.189475 172.54039,195.633882 C172.00768,195.967187 171.511716,196.457879 171.052483,197.105972 L171.052483,195.967185 C171.052483,195.707948 170.960638,195.504265 170.776945,195.356129 C170.611621,195.245027 170.418746,195.189477 170.198315,195.189477 C169.959514,195.189477 169.757454,195.254286 169.59213,195.383904 C169.426807,195.53204 169.344146,195.726465 169.344146,195.967185 L169.344146,195.967185 Z M178.740001,190.328802 L178.740001,209.938155 C178.740001,210.197393 178.822662,210.410334 178.987986,210.576987 C179.153309,210.725123 179.355369,210.799189 179.59417,210.799189 C179.814602,210.799189 180.007476,210.715864 180.1728,210.549212 C180.356493,210.382559 180.448339,210.160359 180.448339,209.882605 L180.448339,204.855278 L183.093506,202.216625 L188.383841,210.410335 C188.549165,210.632539 188.760409,210.762155 189.017579,210.799189 C189.238011,210.817706 189.449255,210.752898 189.651317,210.604762 C189.83501,210.475144 189.945224,210.289977 189.981963,210.049257 C190.018702,209.808536 189.95441,209.567819 189.789086,209.327099 L184.278321,201.050063 L189.045133,196.300489 C189.265565,196.096802 189.384963,195.874602 189.403333,195.633882 C189.403333,195.430195 189.329856,195.245029 189.182902,195.078376 C189.017578,194.930241 188.824703,194.846915 188.604272,194.828399 C188.365471,194.828399 188.145042,194.920982 187.94298,195.106151 L180.448339,202.577704 L180.448339,190.328802 C180.448339,190.032531 180.356493,189.801072 180.1728,189.63442 C180.007476,189.486284 179.814602,189.412217 179.59417,189.412217 C179.355369,189.412217 179.153309,189.486284 178.987986,189.63442 C178.822662,189.801072 178.740001,190.032531 178.740001,190.328802 L178.740001,190.328802 Z" id="path-4"></path>
    </defs>
    <g id="Page-1" stroke="none" stroke-width="1" fill="none" fill-rule="evenodd" sketch:type="MSPage">
        <g id="Rainbow" sketch:type="MSLayerGroup" transform="translate(0.000000, 0.811463)">
            <g id="Scally">
                <use fill="none" sketch:type="MSShapeGroup" xlink:href="#path-2"></use>
                <use fill="none" xlink:href="#path-2"></use>
                <use fill="url(#linearGradient-1)" fill-rule="evenodd" xlink:href="#path-2"></use>
                <use fill="none" xlink:href="#path-2"></use>
                <use fill="none" xlink:href="#path-2"></use>
            </g>
            <g id="css-framework">
                <use fill="url(#linearGradient-3)" fill-rule="evenodd" sketch:type="MSShapeGroup" xlink:href="#path-4"></use>
                <use fill="none" xlink:href="#path-4"></use>
            </g>
        </g>
    </g>
</svg>